<?xml version="1.0" standalone="no"?>
<!DOCTYPE svg PUBLIC "-//W3C//DTD SVG 20010904//EN"
 "http://www.w3.org/TR/2001/REC-SVG-20010904/DTD/svg10.dtd">
<svg version="1.0" xmlns="http://www.w3.org/2000/svg"
 width="512.000000pt" height="512.000000pt" viewBox="0 0 512.000000 512.000000"
 preserveAspectRatio="xMidYMid meet">

<g transform="translate(0.000000,512.000000) scale(0.100000,-0.100000)"
fill="#000000" stroke="none">
<path d="M645 5111 c-143 -35 -234 -151 -243 -308 l-5 -83 -55 0 c-85 0 -131
-18 -187 -75 -102 -101 -102 -229 0 -330 56 -57 102 -75 189 -75 l56 0 0 -294
0 -294 -78 -3 c-66 -3 -86 -9 -128 -34 -65 -41 -104 -105 -111 -182 -13 -147
105 -263 269 -263 l48 0 0 -290 0 -290 -48 0 c-71 0 -148 -26 -191 -66 -118
-106 -101 -295 33 -379 42 -25 62 -31 128 -34 l78 -3 0 -294 0 -294 -56 0
c-87 0 -133 -18 -189 -75 -102 -101 -102 -229 0 -330 56 -57 102 -75 187 -75
l55 0 5 -82 c9 -135 60 -219 170 -279 l63 -34 1072 -5 1072 -5 63 -95 c161
-246 414 -426 706 -502 108 -29 130 -31 287 -31 181 0 246 9 393 59 429 144
745 534 802 988 62 492 -195 981 -638 1209 -91 48 -254 107 -291 107 -21 0
-21 3 -19 147 l3 146 220 74 c150 49 226 80 238 94 16 20 17 79 17 931 l0 909
-25 24 c-24 25 -24 25 -238 25 l-214 0 -5 84 c-9 136 -69 230 -188 288 l-45
23 -1585 2 c-872 0 -1598 -2 -1615 -6z m555 -230 l0 -79 -152 -4 c-168 -4
-202 -14 -261 -76 -28 -29 -30 -30 -63 -16 -18 8 -63 14 -99 14 l-65 0 0 43
c0 93 44 166 113 186 18 5 143 10 280 10 l247 1 0 -79z m2624 65 c18 -8 46
-31 62 -52 l29 -37 3 -1229 2 -1228 -82 0 c-233 0 -480 -77 -679 -210 -91 -61
-257 -231 -318 -325 -188 -288 -246 -631 -163 -953 l29 -112 -673 0 -674 0 0
2080 0 2080 1215 0 c1017 0 1221 -2 1249 -14z m-3104 -1000 l0 -305 -32 10
c-18 5 -54 9 -80 9 l-48 0 0 290 0 289 73 4 c39 1 75 4 80 5 4 1 7 -135 7
-302z m3673 -46 c-5 -4 -77 -30 -161 -58 l-153 -51 3 156 3 156 155 52 155 52
3 -150 c1 -83 -1 -154 -5 -157z m0 -481 c-8 -8 -288 -99 -304 -99 -5 0 -9 67
-9 149 l0 149 103 36 c56 20 127 44 157 55 l55 18 3 -150 c1 -83 -1 -154 -5
-158z m0 -479 c-5 -4 -77 -30 -161 -58 l-153 -51 3 156 3 156 155 52 155 52 3
-150 c1 -83 -1 -154 -5 -157z m-3673 -61 l0 -301 -22 6 c-13 3 -49 6 -80 6
l-58 0 0 290 0 289 68 4 c37 2 73 4 80 5 9 2 12 -64 12 -299z m3219 -649 c116
-12 237 -45 331 -89 36 -17 56 -29 44 -26 -163 40 -312 52 -444 35 -487 -63
-864 -411 -966 -890 -32 -150 -23 -372 22 -539 3 -9 -9 13 -26 49 -75 156
-109 361 -90 535 59 524 465 901 1006 934 12 0 67 -4 123 -9z m-3221 -714 c-2
-1 -38 0 -80 2 l-78 4 0 289 0 289 53 1 c28 1 63 4 77 8 l25 7 3 -300 c1 -164
1 -300 0 -300z m3042 344 c0 -62 31 -100 80 -100 50 0 80 38 80 101 l0 52 43
-6 c85 -12 231 -72 292 -121 l29 -24 -37 -41 c-20 -23 -37 -50 -37 -61 0 -49
41 -90 90 -90 11 0 38 17 61 37 l41 37 24 -29 c53 -66 124 -246 124 -314 0
-19 -6 -21 -50 -21 -62 0 -100 -31 -100 -80 0 -49 38 -80 100 -80 44 0 50 -2
50 -21 0 -68 -71 -248 -124 -314 l-24 -29 -41 37 c-23 20 -50 37 -61 37 -49 0
-90 -41 -90 -90 0 -11 17 -38 37 -61 l37 -41 -29 -24 c-67 -54 -245 -124 -314
-124 -19 0 -21 6 -21 50 0 62 -31 100 -80 100 -49 0 -80 -38 -80 -100 0 -44
-2 -50 -21 -50 -68 0 -248 71 -314 124 l-29 24 37 41 c20 23 37 50 37 61 0 49
-41 90 -90 90 -11 0 -38 -16 -60 -36 -21 -20 -44 -33 -49 -29 -38 23 -141 264
-141 329 0 25 3 26 50 26 62 0 100 31 100 80 0 50 -38 80 -101 80 l-52 0 6 43
c12 84 74 232 122 294 l23 27 41 -37 c23 -20 50 -37 61 -37 49 0 90 41 90 90
0 11 -16 38 -36 60 -20 21 -33 44 -29 49 9 16 114 75 175 99 70 27 118 40 153
41 26 1 27 -1 27 -49z m-3038 -888 c3 -61 11 -90 31 -127 l27 -48 -55 6 c-104
11 -154 64 -163 173 l-5 63 74 4 c41 1 77 4 80 5 4 1 8 -33 11 -76z"/>
<path d="M1762 4467 c-19 -6 -55 -30 -82 -54 -79 -71 -80 -79 -80 -491 0 -249
4 -367 12 -396 16 -55 99 -138 154 -154 31 -9 250 -12 876 -12 948 0 895 -4
971 80 24 26 49 66 55 88 17 55 17 729 0 784 -6 22 -31 62 -55 88 -76 85 -21
80 -977 79 -565 -1 -852 -5 -874 -12z m1711 -158 c45 -20 47 -41 47 -389 0
-348 -2 -369 -47 -389 -17 -8 -261 -11 -833 -11 -572 0 -816 3 -833 11 -14 6
-30 22 -36 36 -14 31 -15 670 -1 708 5 14 20 30 32 35 35 13 1641 13 1671 -1z"/>
<path d="M1945 4135 c-16 -15 -25 -36 -25 -55 0 -19 9 -40 25 -55 23 -24 31
-25 135 -25 104 0 112 1 135 25 16 15 25 36 25 55 0 19 -9 40 -25 55 -23 24
-31 25 -135 25 -104 0 -112 -1 -135 -25z"/>
<path d="M2425 4135 c-16 -15 -25 -36 -25 -55 0 -19 9 -40 25 -55 l24 -25 431
0 431 0 24 25 c16 15 25 36 25 55 0 19 -9 40 -25 55 l-24 25 -431 0 -431 0
-24 -25z"/>
<path d="M1945 3815 c-16 -15 -25 -36 -25 -55 0 -19 9 -40 25 -55 23 -24 31
-25 135 -25 104 0 112 1 135 25 16 15 25 36 25 55 0 19 -9 40 -25 55 -23 24
-31 25 -135 25 -104 0 -112 -1 -135 -25z"/>
<path d="M2425 3815 c-16 -15 -25 -36 -25 -55 0 -19 9 -40 25 -55 l24 -25 431
0 431 0 24 25 c16 15 25 36 25 55 0 19 -9 40 -25 55 l-24 25 -431 0 -431 0
-24 -25z"/>
<path d="M3785 1575 c-25 -24 -25 -26 -25 -215 0 -189 0 -191 25 -215 23 -24
28 -25 175 -25 147 0 152 1 175 25 16 15 25 36 25 55 0 19 -9 40 -25 55 -22
23 -32 25 -120 25 l-95 0 0 135 c0 131 -1 137 -25 160 -15 16 -36 25 -55 25
-19 0 -40 -9 -55 -25z"/>
</g>
</svg>
